<?xml version="1.0" encoding="UTF-8" standalone="no"?>
<!DOCTYPE svg PUBLIC "-//W3C//DTD SVG 1.1//EN" "http://www.w3.org/Graphics/SVG/1.1/DTD/svg11.dtd">
<svg width="100%" height="100%" viewBox="0 0 13 13" version="1.1" xmlns="http://www.w3.org/2000/svg" xmlns:xlink="http://www.w3.org/1999/xlink" xml:space="preserve" xmlns:serif="http://www.serif.com/" style="fill-rule:evenodd;clip-rule:evenodd;stroke-linejoin:round;stroke-miterlimit:2;">
    <g transform="matrix(0.015412,0,0,0.015412,-0.053046,-0.053046)">
        <path d="M822.296,531.599C763.571,750.764 537.959,881.021 318.794,822.296C99.629,763.571 -30.628,537.959 28.097,318.794C86.822,99.629 312.434,-30.628 531.599,28.097C750.764,86.822 881.021,312.434 822.296,531.599Z" style="fill:url(#_Linear1);"/>
    </g>
    <g transform="matrix(0.015412,0,0,0.015412,-0.053046,-0.053046)">
        <path d="M361.859,733.66C363.528,709.889 369.997,708.957 364.658,702.71C361.809,699.377 329.034,672.725 327.824,671.76C293.168,644.124 275.984,625.95 269.669,626.548C268.225,626.685 251.673,637.103 232.572,636.62C172.268,635.094 152.204,562.209 190.815,526.914C226.74,494.075 279.036,511.595 293.238,548.609C302.348,572.352 294.405,594.244 294,595.951C292.227,603.43 295.377,604.824 302.15,610.501C307.693,615.147 354.8,654.637 371.76,668.191C383.178,677.316 383.854,682.168 396.896,675.413C426.366,660.149 450.827,674.251 454.85,675.881C462.539,678.994 465.633,671.706 488.468,649.799C493.432,645.037 545.638,593.348 546.026,592.95C556.882,581.794 561.223,580.874 557.983,572.576C556.399,568.518 546.923,544.249 558.37,518.12C561.741,510.425 563.209,509.175 556.112,501.057C496.813,433.224 497.206,432.391 494.628,431.837C487.788,430.368 469.212,455.678 451.958,472.007C444.195,479.354 449.219,481.102 454.958,484.122C495.9,505.666 498.359,559.779 468.605,586.279C428.76,621.768 376.895,596.66 366.105,562.425C353.263,521.678 375.549,510.843 371.767,500.991C371.444,500.15 295.52,406.983 268.153,371.491C258.23,358.622 254.339,368.211 239.223,368.94C196.707,370.991 180.232,338.927 177.641,333.885C150.736,281.522 205.518,223.561 259.291,246.378C270.359,251.074 270.699,247.265 279.38,238.848C302.963,215.983 303.061,216.113 305.094,214.109C316.964,202.406 316.973,202.575 329.028,190.907C345.305,175.152 344.883,174.871 361.143,159.195C370.816,149.87 368.546,148.096 365.385,137.819C358.844,116.552 364.292,95.561 371.315,84.939C411.777,23.74 504.099,62.706 487.228,134.613C485.263,142.989 481.917,145.514 495.998,157.17C500.14,160.599 533.688,188.37 547.681,200.136C572.132,220.695 575.975,224.642 576.221,224.775C580.792,227.259 584.18,220.251 609.288,215.245C619.797,213.15 640.399,217.559 650.398,224.725C706.71,265.082 673.68,337.49 622.649,342.25C592.008,345.108 588.669,327.784 576.658,340.934C538.132,383.111 537.887,382.801 534.557,386.48C519.76,402.826 512.345,404.396 521.538,414.402C528.69,422.186 538.978,434.78 543.48,439.735C584.536,484.922 583.058,488.101 589.159,487.954C590.997,487.91 590.919,487.609 599.119,484.366C611.885,479.317 650.482,478.494 671.288,514.266C700.176,563.933 650.828,630.382 588.531,603.974C578.535,599.737 578.296,603.287 570.786,611.062C545.35,637.397 544.352,636.27 487.746,692.79C479.709,700.815 482.454,702.362 485.607,713.275C505.572,782.393 420.049,823.329 376.974,774.263C361.137,756.224 362.009,735.362 361.862,733.663L361.859,733.66ZM297.894,306.456C296.546,338.365 282.768,338.539 290.434,349.705C296.221,358.134 364.474,440.974 389.002,473.297C390.303,475.011 395.915,484.496 407.808,478.465C411.909,476.386 410.87,474.922 411.02,400.634C411.068,376.66 412.359,374.253 403.903,370.978C344.423,347.941 351.021,264.133 410.783,248.859C454.995,237.559 504.208,281.598 483.677,336.262C474.613,360.395 444.212,372.4 442.706,374.788C439.95,379.158 441.839,391.103 440.677,427.584C440.655,428.288 440.219,441.954 448.488,431.634C453.666,425.172 557.984,319.017 559.207,316.766C564.457,307.108 550.993,305.454 553.333,272.913C554.524,256.349 562.769,253.184 551.574,243.184C535.497,228.823 534.798,229.803 518.627,215.499C516.06,213.228 484.963,187.171 482.03,184.713C465.875,171.176 464.466,169.861 457.34,174.099C445.839,180.94 427.161,185.001 411.249,180.631C394.355,175.991 392.605,170.03 384.184,178.818C338.233,226.768 333.115,228.071 296.232,265.81C289.707,272.487 291.409,273.71 294.358,282.513C297.519,291.951 297.845,304.522 297.895,306.458L297.894,306.456Z" style="fill:url(#_Linear2);"/>
    </g>
    <defs>
        <linearGradient id="_Linear1" x1="0" y1="0" x2="1" y2="0" gradientUnits="userSpaceOnUse" gradientTransform="matrix(-212.80479,794.198287,-794.198287,-212.80479,531.599245,28.097707)"><stop offset="0" style="stop-color:white;stop-opacity:1"/><stop offset="1" style="stop-color:rgb(234,224,255);stop-opacity:1"/></linearGradient>
        <linearGradient id="_Linear2" x1="0" y1="0" x2="1" y2="0" gradientUnits="userSpaceOnUse" gradientTransform="matrix(509.253978,0,0,509.253978,170.569862,425.19685)"><stop offset="0" style="stop-color:rgb(67,68,150);stop-opacity:1"/><stop offset="1" style="stop-color:rgb(124,163,212);stop-opacity:1"/><stop offset="1" style="stop-color:white;stop-opacity:1"/></linearGradient>
    </defs>
</svg>
